# xmcd CD database file generated by OrangeCD 6.4
#
# Track frame offsets:
#	150
#	14993
#	30270
#	44535
#	70430
#	83751
#	141432
#	167915
#	210209
#	265517
#	294695
#
# Disc length: 4287 seconds
#
# Revision: 0
# Processed by: cddbd v1.5.2PL0 Copyright (c) Steve Scherf et al.
# Submitted via: OrangeCD 6.4
#
DISCID=9f10bd0b
DTITLE=Various Artist - Deep South: The Story Of The Blues
DYEAR=2012
DGENRE=Jazz
TTITLE0=Louis Armstrong And His Hot Five - West End Blues
TTITLE1=Lester Young Quintet - Blue Lester
TTITLE2=Dizzy Gillespie - Birk's Works
TTITLE3=Coleman Hawkins - Blue Lights
TTITLE4=Thelonious Monk Quintet - Straight No Chaser
TTITLE5=Eddie "Lockjaw" Davis - In The Kitchen
TTITLE6=Tony Scott Quartet - Blues For Ava
TTITLE7=Miles Davis - Bag's Groove
TTITLE8=Sonny Rollins - Tenor Madness
TTITLE9=John Coltrane - Blues To You
TTITLE10=Dave Brubeck featuring Bill Smith - Frisco Fog
EXTD=
EXTT0=
EXTT1=
EXTT2=
EXTT3=
EXTT4=
EXTT5=
EXTT6=
EXTT7=
EXTT8=
EXTT9=
EXTT10=
PLAYORDER=
